<?xml version="1.0" encoding="utf-8"?>
<!-- Generator: Adobe Illustrator 24.2.3, SVG Export Plug-In . SVG Version: 6.00 Build 0)  -->
<svg version="1.1" id="Layer_1" xmlns="http://www.w3.org/2000/svg" xmlns:xlink="http://www.w3.org/1999/xlink" x="0px" y="0px"
	 viewBox="0 0 458.9 423.9" style="enable-background:new 0 0 458.9 423.9;" xml:space="preserve">
<style type="text/css">
	.st0{fill:#FFFFFF;}
</style>
<g>
	<g>
		<g>
			<polygon class="st0" points="63.1,153.6 63.1,183.7 96.4,183.7 96.4,184.5 63.1,184.5 63.1,236.4 119,236.4 119,238.2 
				59.7,238.2 59.7,184.5 3.4,184.5 3.4,238.2 0,238.2 0,151.8 3.4,151.8 3.4,183.7 59.7,183.7 59.7,151.8 119,151.8 119,153.6 			
				"/>
			<polygon class="st0" points="207.3,151.8 207.3,238.2 203.9,238.2 203.9,222.4 134.8,154.2 134.8,238.2 131.3,238.2 131.3,151.8 
				134.8,151.8 134.8,152 203.9,220.2 203.9,151.8 			"/>
			<polygon class="st0" points="458.9,151.8 458.9,238.2 455.4,238.2 455.4,222.4 386.3,154.2 386.3,238.2 382.9,238.2 382.9,151.8 
				386.3,151.8 386.3,152 455.4,220.2 455.4,151.8 			"/>
			<path class="st0" d="M295,225.3c-8,8.1-19.1,13.2-31.4,13.2c-24.3,0-44.1-19.7-44.1-44.1s19.7-44.1,44.1-44.1
				c11.1,0,21.3,4.1,29,10.9l-2.7,2c-7.2-7-16.7-11.3-27.2-11.3c-22.1,0-40.1,18.9-40.1,42.3s17.9,42.3,40,42.3
				c10.1,0,19.3-3.9,26.4-10.5v-43.1h3.3v39.7L295,225.3z"/>
			<g>
				<rect x="367.1" y="151.8" class="st0" width="3.4" height="86.3"/>
			</g>
			<polygon class="st0" points="355.9,238.1 352.3,238.1 331.8,196.8 331.5,196.2 310.8,238.6 309,237.7 330.1,194.6 308.8,151.8 
				311.7,150.4 332.7,192.7 333,193.2 353.7,151 355.4,151.8 334.3,194.9 			"/>
		</g>
	</g>
	<g>
		<path class="st0" d="M152.8,257.5c-0.1,0.7-0.1,1.3-0.1,2c0,0.7-0.1,1.4-0.1,2.2c0,0.8,0,1.6,0,2.5c0,0.9,0,1.9,0,2.9v0.9
			c0,0.3,0,0.6,0,1s0,0.6,0,0.9c0,0.3,0,0.5,0,0.6c0,0.2,0,0.4,0.1,0.6c0,0.1,0.2,0.3,0.3,0.3c0.2,0.1,0.4,0.2,0.8,0.2
			c0.4,0.1,0.8,0.1,1.5,0.2l-0.5,1.2c-0.1,0-0.2,0-0.5,0c-0.2,0-0.5,0-0.9-0.1c-0.4,0-0.7,0-1.2,0s-0.8,0-1.3,0c-0.6,0-1.1,0-1.5,0
			c-0.5,0-0.9,0-1.3,0.1c-0.4,0-0.6,0-0.9,0.1c-0.2,0-0.4,0-0.4,0.1c0-0.1,0-0.2,0-0.3c0-0.1,0.1-0.3,0.2-0.5
			c0.1-0.2,0.4-0.3,0.6-0.5c0.3-0.2,0.7-0.3,1.3-0.3c0-0.4,0.1-0.7,0.1-1.1c0-0.4,0-0.8,0-1.2s0-0.7,0-1.1v-0.8c0-1.1,0-2,0-2.8
			c0-0.7,0-1.4,0-1.9c0-0.5,0-0.9,0-1.2s0-0.5,0-0.6c0-0.3-0.1-0.6-0.1-0.7s-0.2-0.3-0.3-0.4s-0.4-0.1-0.7-0.1s-0.8,0-1.4,0l0.3-1.1
			c0.6-0.1,1.3-0.2,1.8-0.3c0.6-0.1,1.1-0.2,1.7-0.3c0.5-0.1,0.9-0.2,1.3-0.3c0.4-0.1,0.7-0.2,0.9-0.3L152.8,257.5z M152.2,250.8
			v0.3c0,0.5,0.1,0.8,0.2,1.2c0.1,0.4,0.3,0.7,0.6,1.1c-0.2,0.4-0.6,0.7-1,0.9c-0.4,0.2-0.9,0.3-1.3,0.3c-0.3,0-0.5,0-0.8-0.1
			c-0.3-0.1-0.5-0.2-0.7-0.4s-0.4-0.4-0.5-0.6c-0.1-0.3-0.2-0.6-0.2-0.9c0-0.2,0-0.4,0.1-0.6c0-0.3,0.1-0.5,0.2-0.7L152.2,250.8
			L152.2,250.8z"/>
		<path class="st0" d="M162.6,257.4c0,0.4-0.1,0.8-0.1,1.2c0,0.5,0,1,0,1.7l0.1,0c0.4-0.4,0.9-0.8,1.3-1.2c0.5-0.4,0.9-0.7,1.4-1
			c0.5-0.3,1-0.5,1.5-0.7c0.5-0.2,1.1-0.3,1.7-0.3c0.6,0,1,0.1,1.4,0.2c0.4,0.2,0.8,0.4,1.1,0.6s0.6,0.6,0.8,1
			c0.2,0.4,0.4,0.8,0.5,1.3h0.1c0.4-0.4,0.9-0.8,1.3-1.2c0.5-0.4,0.9-0.7,1.4-1c0.5-0.3,1-0.5,1.6-0.7c0.6-0.2,1.1-0.2,1.7-0.2
			c0.8,0,1.5,0.2,2.1,0.5s1,0.7,1.3,1.3c0.3,0.6,0.6,1.2,0.7,2c0.1,0.8,0.2,1.6,0.2,2.5c0,0.5,0,1.1-0.1,1.7c0,0.6-0.1,1.3-0.1,1.9
			c0,0.6-0.1,1.2-0.1,1.7c0,0.6-0.1,0.9-0.1,1.2s0,0.5,0.1,0.7c0.1,0.2,0.2,0.3,0.4,0.4c0.2,0.1,0.5,0.2,0.8,0.3
			c0.4,0.1,0.9,0.1,1.5,0.2l-0.5,1.2c-0.1,0-0.2,0-0.5,0c-0.3,0-0.6,0-0.9-0.1c-0.4,0-0.8,0-1.2,0c-0.5,0-0.9,0-1.4,0
			c-0.4,0-0.7,0-1.1,0c-0.3,0-0.6,0-0.9,0c0.1-0.8,0.2-1.6,0.2-2.3c0.1-0.7,0.1-1.4,0.2-2c0-0.6,0.1-1.3,0.1-1.8c0-0.6,0-1.2,0-1.9
			c0-0.6,0-1.2-0.1-1.8c0-0.6-0.2-1.1-0.3-1.6c-0.2-0.5-0.5-0.8-0.8-1.2c-0.4-0.3-0.9-0.5-1.6-0.5c-0.4,0-0.7,0-1.1,0.1
			c-0.4,0.1-0.7,0.2-1,0.4s-0.6,0.4-0.9,0.6c-0.3,0.2-0.6,0.5-0.8,0.7c0,0.3,0.1,0.6,0.1,0.9c0,0.3,0,0.6,0,0.9c0,0.6,0,1.2,0,1.8
			c0,0.7-0.1,1.3-0.1,1.9c0,0.6-0.1,1.2-0.1,1.7c0,0.5,0,0.9,0,1.2s0,0.5,0.1,0.7c0.1,0.2,0.2,0.3,0.4,0.4c0.2,0.1,0.5,0.2,0.8,0.3
			c0.4,0.1,0.8,0.1,1.5,0.2l-0.5,1.2c-0.1,0-0.2,0-0.5,0c-0.2,0-0.5,0-0.9-0.1c-0.4,0-0.7,0-1.2,0c-0.5,0-0.9,0-1.4,0
			c-0.4,0-0.7,0-1.1,0c-0.3,0-0.6,0-0.9,0c0.1-0.8,0.1-1.6,0.2-2.3c0.1-0.7,0.1-1.4,0.1-2c0-0.6,0.1-1.3,0.1-1.9s0-1.3,0-1.9
			c0-0.6,0-1.2-0.1-1.7c0-0.6-0.1-1.1-0.3-1.6c-0.2-0.5-0.5-0.9-0.8-1.2c-0.4-0.3-0.9-0.5-1.6-0.5c-0.4,0-0.7,0-1.1,0.1
			c-0.4,0.1-0.7,0.2-1,0.4s-0.6,0.4-0.9,0.6s-0.6,0.5-0.8,0.7c0,0.3,0,0.7,0,1c0,0.4,0,0.7,0,1v3.6c0,0.6,0,1,0,1.4s0,0.7,0,1
			c0,0.3,0,0.6,0,0.8c0,0.2,0,0.4,0.1,0.6c0,0.1,0.2,0.3,0.3,0.3c0.2,0.1,0.4,0.2,0.8,0.2c0.4,0.1,0.8,0.1,1.5,0.2l-0.5,1.2
			c-0.1,0-0.2,0-0.5,0c-0.3,0-0.6,0-0.9-0.1c-0.4,0-0.7,0-1.2,0c-0.4,0-0.9,0-1.3,0c-0.6,0-1.1,0-1.6,0c-0.5,0-0.9,0-1.3,0.1
			c-0.4,0-0.6,0-0.9,0.1c-0.2,0-0.4,0-0.4,0c0-0.1,0-0.2,0-0.3c0-0.1,0.1-0.3,0.2-0.5c0.1-0.2,0.4-0.3,0.6-0.5
			c0.3-0.2,0.7-0.3,1.3-0.3c0-0.4,0.1-0.7,0.1-1.2s0-0.9,0-1.3c0-0.4,0-0.8,0-1.1v-0.7c0-1,0-1.8,0-2.6c0-0.7,0-1.3,0-1.8
			s0-0.9,0-1.2c0-0.3,0-0.6,0-0.7c0-0.3-0.1-0.6-0.1-0.7s-0.2-0.3-0.3-0.4c-0.2-0.1-0.4-0.1-0.7-0.1c-0.3,0-0.8,0-1.4,0l0.3-1.1
			c0.6-0.1,1.2-0.2,1.8-0.3c0.6-0.1,1.1-0.2,1.6-0.3c0.5-0.1,0.9-0.2,1.3-0.3s0.6-0.2,0.9-0.3L162.6,257.4z"/>
		<path class="st0" d="M192.6,257.4c0,0.4-0.1,0.8-0.1,1.2s0,1,0,1.7l0.1,0c0.4-0.4,0.9-0.8,1.3-1.2c0.5-0.4,0.9-0.7,1.4-1
			c0.5-0.3,1-0.5,1.5-0.7c0.5-0.2,1.1-0.3,1.7-0.3c0.6,0,1,0.1,1.4,0.2c0.4,0.2,0.8,0.4,1.1,0.6c0.3,0.3,0.6,0.6,0.8,1
			c0.2,0.4,0.4,0.8,0.5,1.3h0.1c0.4-0.4,0.9-0.8,1.3-1.2c0.5-0.4,0.9-0.7,1.4-1c0.5-0.3,1-0.5,1.6-0.7c0.6-0.2,1.1-0.2,1.7-0.2
			c0.8,0,1.5,0.2,2.1,0.5s1,0.7,1.3,1.3c0.3,0.6,0.6,1.2,0.7,2c0.1,0.8,0.2,1.6,0.2,2.5c0,0.5,0,1.1-0.1,1.7c0,0.6-0.1,1.3-0.1,1.9
			c0,0.6-0.1,1.2-0.1,1.7c0,0.6-0.1,0.9-0.1,1.2s0,0.5,0.1,0.7c0.1,0.2,0.2,0.3,0.4,0.4c0.2,0.1,0.5,0.2,0.8,0.3
			c0.4,0.1,0.9,0.1,1.5,0.2l-0.5,1.2c-0.1,0-0.2,0-0.5,0c-0.3,0-0.6,0-0.9-0.1c-0.4,0-0.8,0-1.2,0c-0.5,0-0.9,0-1.4,0
			c-0.4,0-0.7,0-1.1,0c-0.3,0-0.6,0-0.9,0c0.1-0.8,0.2-1.6,0.2-2.3c0.1-0.7,0.1-1.4,0.2-2c0-0.6,0.1-1.3,0.1-1.8c0-0.6,0-1.2,0-1.9
			c0-0.6,0-1.2-0.1-1.8c0-0.6-0.2-1.1-0.3-1.6c-0.2-0.5-0.5-0.8-0.8-1.2c-0.4-0.3-0.9-0.5-1.6-0.5c-0.4,0-0.7,0-1.1,0.1
			c-0.4,0.1-0.7,0.2-1,0.4s-0.6,0.4-0.9,0.6c-0.3,0.2-0.6,0.5-0.8,0.7c0,0.3,0.1,0.6,0.1,0.9c0,0.3,0,0.6,0,0.9c0,0.6,0,1.2,0,1.8
			c0,0.7-0.1,1.3-0.1,1.9c0,0.6-0.1,1.2-0.1,1.7s0,0.9,0,1.2s0,0.5,0.1,0.7c0.1,0.2,0.2,0.3,0.4,0.4c0.2,0.1,0.5,0.2,0.8,0.3
			c0.4,0.1,0.8,0.1,1.5,0.2l-0.5,1.2c-0.1,0-0.2,0-0.5,0c-0.2,0-0.5,0-0.9-0.1c-0.4,0-0.7,0-1.2,0c-0.5,0-0.9,0-1.4,0
			c-0.4,0-0.7,0-1.1,0c-0.3,0-0.6,0-0.9,0c0.1-0.8,0.1-1.6,0.2-2.3c0.1-0.7,0.1-1.4,0.1-2c0-0.6,0.1-1.3,0.1-1.9s0-1.3,0-1.9
			c0-0.6,0-1.2-0.1-1.7c0-0.6-0.1-1.1-0.3-1.6c-0.2-0.5-0.5-0.9-0.8-1.2c-0.4-0.3-0.9-0.5-1.6-0.5c-0.4,0-0.7,0-1.1,0.1
			c-0.4,0.1-0.7,0.2-1,0.4c-0.3,0.2-0.6,0.4-0.9,0.6s-0.6,0.5-0.8,0.7c0,0.3,0,0.7,0,1c0,0.4,0,0.7,0,1v3.6c0,0.6,0,1,0,1.4
			s0,0.7,0,1c0,0.3,0,0.6,0,0.8c0,0.2,0,0.4,0.1,0.6c0,0.1,0.1,0.3,0.3,0.3c0.2,0.1,0.4,0.2,0.8,0.2c0.4,0.1,0.8,0.1,1.5,0.2
			l-0.5,1.2c-0.1,0-0.2,0-0.5,0c-0.3,0-0.6,0-0.9-0.1c-0.4,0-0.7,0-1.2,0s-0.9,0-1.3,0c-0.6,0-1.1,0-1.6,0c-0.5,0-0.9,0-1.3,0.1
			c-0.4,0-0.6,0-0.9,0.1c-0.2,0-0.4,0-0.4,0c0-0.1,0-0.2,0-0.3s0.1-0.3,0.2-0.5c0.1-0.2,0.4-0.3,0.6-0.5c0.3-0.2,0.7-0.3,1.3-0.3
			c0-0.4,0.1-0.7,0.1-1.2s0-0.9,0-1.3c0-0.4,0-0.8,0-1.1v-0.7c0-1,0-1.8,0-2.6c0-0.7,0-1.3,0-1.8s0-0.9,0-1.2c0-0.3,0-0.6,0-0.7
			c0-0.3-0.1-0.6-0.1-0.7c0-0.2-0.2-0.3-0.3-0.4c-0.2-0.1-0.4-0.1-0.7-0.1s-0.8,0-1.4,0l0.3-1.1c0.6-0.1,1.2-0.2,1.8-0.3
			c0.6-0.1,1.1-0.2,1.6-0.3c0.5-0.1,0.9-0.2,1.3-0.3c0.4-0.1,0.6-0.2,0.9-0.3L192.6,257.4z"/>
		<path class="st0" d="M225.4,257.3c1,0,1.9,0.2,2.8,0.5c0.8,0.3,1.6,0.8,2.2,1.5c0.6,0.6,1.1,1.5,1.5,2.4c0.4,1,0.6,2,0.6,3.3
			c0,1-0.1,1.9-0.4,2.7c-0.2,0.8-0.6,1.5-1,2.1c-0.4,0.6-0.9,1.2-1.5,1.6c-0.6,0.5-1.1,0.8-1.7,1.1c-0.6,0.3-1.3,0.5-1.9,0.6
			c-0.6,0.1-1.3,0.2-1.9,0.2c-1,0-1.9-0.2-2.7-0.5c-0.8-0.3-1.6-0.8-2.2-1.5c-0.6-0.6-1.1-1.5-1.5-2.4c-0.4-1-0.6-2.1-0.6-3.3
			c0-1,0.1-2,0.4-2.8c0.3-0.8,0.6-1.5,1-2.2c0.4-0.6,0.9-1.2,1.5-1.6c0.6-0.5,1.1-0.8,1.8-1.1c0.6-0.3,1.3-0.5,1.9-0.6
			C224.2,257.4,224.8,257.3,225.4,257.3z M229,266.7c0-0.9-0.1-1.8-0.3-2.7c-0.2-0.9-0.5-1.7-0.9-2.4c-0.4-0.7-0.9-1.3-1.6-1.8
			c-0.6-0.5-1.4-0.7-2.3-0.7c-0.7,0-1.3,0.1-1.7,0.4s-0.8,0.6-1.1,1.1c-0.3,0.5-0.5,1-0.6,1.6c-0.1,0.6-0.2,1.2-0.2,1.7
			c0,0.9,0.1,1.8,0.3,2.7c0.2,0.9,0.5,1.7,1,2.4c0.4,0.7,1,1.3,1.6,1.8c0.6,0.5,1.4,0.7,2.3,0.7c0.7,0,1.3-0.1,1.7-0.4
			c0.5-0.3,0.8-0.6,1-1.1s0.4-1,0.5-1.6C229,267.9,229,267.3,229,266.7z"/>
		<path class="st0" d="M239.9,260.1c0.4-0.4,0.7-0.7,1.2-1c0.4-0.3,0.9-0.6,1.3-0.9c0.5-0.3,1-0.5,1.5-0.6c0.6-0.2,1.1-0.2,1.7-0.2
			c0.9,0,1.7,0.2,2.5,0.6c0.7,0.4,1.3,0.8,1.8,1.5c0.5,0.6,0.9,1.4,1.2,2.2s0.4,1.7,0.4,2.7c0,0.8-0.1,1.6-0.3,2.3
			c-0.2,0.8-0.5,1.5-0.8,2.2c-0.4,0.7-0.8,1.3-1.3,1.9c-0.5,0.6-1.1,1.1-1.8,1.5c-0.7,0.4-1.4,0.7-2.2,1c-0.8,0.2-1.7,0.4-2.6,0.4
			c-0.2,0-0.5,0-0.7,0c-0.3,0-0.6-0.1-1-0.1c-0.4-0.1-0.8-0.1-1.3-0.3c-0.5-0.1-0.9-0.3-1.4-0.5c-0.2,0.1-0.5,0.2-0.8,0.3
			c-0.3,0.1-0.6,0.3-0.9,0.5l-0.2-0.1c0.1-0.8,0.1-1.7,0.2-2.6s0.1-1.9,0.1-2.9c0-1,0-2.1,0.1-3.1c0-1.1,0-2.1,0-3.2
			c0-1.2,0-2.4,0-3.6s0-2.2,0-3.2c0-1,0-1.8,0-2.5s0-1.2,0-1.5c0-0.3,0-0.6-0.1-0.7c0-0.2-0.2-0.3-0.3-0.4c-0.2-0.1-0.5-0.1-0.8-0.1
			c-0.4,0-0.9,0-1.5,0l0.3-1.1c0.6,0,1.2-0.1,1.8-0.2c0.6-0.1,1.2-0.2,1.7-0.3c0.5-0.1,1-0.2,1.4-0.3c0.4-0.1,0.7-0.2,0.9-0.3
			l0.3,0.2c0,0.6-0.1,1.2-0.1,1.8c0,0.7,0,1.4-0.1,2.1c0,0.7,0,1.5,0,2.3s0,1.6,0,2.3c0,0.7,0,1.5,0,2.2L239.9,260.1L239.9,260.1z
			 M239.9,263c0,1.7,0,3.2,0,4.5c0,1.3,0,2.4,0.1,3.4c0.3,0.2,0.6,0.4,0.9,0.5c0.3,0.1,0.6,0.2,0.9,0.3s0.6,0.1,0.8,0.1
			c0.3,0,0.5,0,0.6,0c0.9,0,1.7-0.2,2.3-0.5c0.6-0.4,1.1-0.8,1.5-1.4c0.4-0.6,0.6-1.2,0.8-1.9s0.3-1.5,0.3-2.2
			c0-0.7-0.1-1.5-0.3-2.2c-0.2-0.7-0.4-1.3-0.8-1.9c-0.4-0.6-0.8-1-1.4-1.3c-0.6-0.3-1.2-0.5-2-0.5c-0.8,0-1.5,0.2-2.1,0.5
			c-0.6,0.3-1.2,0.7-1.7,1.2L239.9,263L239.9,263z"/>
		<path class="st0" d="M259.8,257.5c-0.1,0.7-0.1,1.3-0.1,2c0,0.7-0.1,1.4-0.1,2.2c0,0.8,0,1.6,0,2.5c0,0.9,0,1.9,0,2.9v0.9
			c0,0.3,0,0.6,0,1s0,0.6,0,0.9c0,0.3,0,0.5,0,0.6c0,0.2,0,0.4,0.1,0.6c0,0.1,0.2,0.3,0.3,0.3c0.2,0.1,0.4,0.2,0.8,0.2
			c0.4,0.1,0.8,0.1,1.5,0.2l-0.5,1.2c-0.1,0-0.2,0-0.5,0c-0.2,0-0.5,0-0.9-0.1c-0.4,0-0.7,0-1.2,0c-0.4,0-0.8,0-1.3,0
			c-0.6,0-1.1,0-1.5,0c-0.5,0-0.9,0-1.3,0.1c-0.4,0-0.6,0-0.9,0.1c-0.2,0-0.4,0-0.4,0.1c0-0.1,0-0.2,0-0.3c0-0.2,0.1-0.3,0.2-0.5
			s0.4-0.3,0.6-0.5c0.3-0.2,0.7-0.3,1.3-0.3c0-0.4,0.1-0.7,0.1-1.1c0-0.4,0-0.8,0-1.2s0-0.7,0-1.1v-0.8c0-1.1,0-2,0-2.8
			c0-0.7,0-1.4,0-1.9c0-0.5,0-0.9,0-1.2s0-0.5,0-0.6c0-0.3-0.1-0.6-0.1-0.7c0-0.2-0.2-0.3-0.3-0.4s-0.4-0.1-0.7-0.1
			c-0.3,0-0.8,0-1.4,0l0.3-1.1c0.6-0.1,1.3-0.2,1.8-0.3s1.1-0.2,1.7-0.3c0.5-0.1,0.9-0.2,1.3-0.3c0.4-0.1,0.7-0.2,0.9-0.3
			L259.8,257.5z M259.2,250.8v0.3c0,0.5,0.1,0.8,0.2,1.2c0.1,0.4,0.3,0.7,0.6,1.1c-0.2,0.4-0.6,0.7-1,0.9c-0.4,0.2-0.9,0.3-1.3,0.3
			c-0.3,0-0.5,0-0.8-0.1c-0.3-0.1-0.5-0.2-0.7-0.4c-0.2-0.2-0.4-0.4-0.5-0.6c-0.1-0.3-0.2-0.6-0.2-0.9c0-0.2,0-0.4,0.1-0.6
			c0-0.3,0.1-0.5,0.2-0.7L259.2,250.8L259.2,250.8z"/>
		<path class="st0" d="M269.5,247.5c0,0.5-0.1,1.1-0.1,1.8c0,0.7,0,1.5-0.1,2.3c0,0.8,0,1.7,0,2.7s0,1.9,0,2.9v10.2
			c0,0.7,0,1.3,0,1.8c0,0.5,0,1,0,1.3c0,0.3,0,0.5,0.1,0.6c0,0.2,0.2,0.3,0.3,0.4c0.2,0.1,0.4,0.2,0.8,0.2c0.4,0.1,0.8,0.1,1.5,0.2
			l-0.5,1.2c-0.1,0-0.2,0-0.5,0c-0.2,0-0.5,0-0.9-0.1c-0.4,0-0.7,0-1.2,0c-0.4,0-0.8,0-1.3,0c-0.6,0-1.1,0-1.6,0
			c-0.5,0-0.9,0-1.3,0.1c-0.4,0-0.7,0-0.9,0.1c-0.3,0-0.4,0-0.4,0.1c0-0.1,0-0.2,0-0.3c0-0.1,0.1-0.3,0.3-0.5s0.4-0.3,0.7-0.5
			c0.3-0.2,0.7-0.3,1.3-0.3c0-0.4,0-0.8,0.1-1.4c0-0.6,0-1.1,0-1.8s0-1.3,0-2s0-1.4,0-2.1c0-0.7,0-1.4,0-2v-1.8c0-1,0-2,0-3
			c0-1,0-1.9,0-2.8c0-0.9,0-1.7,0-2.4s0-1.3,0-1.7c0-0.3-0.1-0.6-0.1-0.7c0-0.2-0.2-0.3-0.3-0.4c-0.2-0.1-0.5-0.1-0.8-0.1
			s-0.9,0-1.5,0l0.3-1.1c0.6,0,1.3-0.1,1.9-0.2c0.6-0.1,1.2-0.2,1.7-0.3c0.5-0.1,1-0.2,1.4-0.3c0.4-0.1,0.7-0.2,0.9-0.3L269.5,247.5
			z"/>
		<path class="st0" d="M279.5,257.5c-0.1,0.7-0.1,1.3-0.1,2c0,0.7-0.1,1.4-0.1,2.2c0,0.8,0,1.6,0,2.5c0,0.9,0,1.9,0,2.9v0.9
			c0,0.3,0,0.6,0,1s0,0.6,0,0.9c0,0.3,0,0.5,0,0.6c0,0.2,0,0.4,0.1,0.6c0,0.1,0.2,0.3,0.3,0.3c0.2,0.1,0.4,0.2,0.8,0.2
			c0.4,0.1,0.8,0.1,1.5,0.2l-0.5,1.2c-0.1,0-0.2,0-0.5,0c-0.2,0-0.5,0-0.9-0.1c-0.4,0-0.7,0-1.2,0c-0.4,0-0.8,0-1.3,0
			c-0.6,0-1.1,0-1.5,0c-0.5,0-0.9,0-1.3,0.1c-0.4,0-0.6,0-0.9,0.1c-0.2,0-0.4,0-0.4,0.1c0-0.1,0-0.2,0-0.3s0.1-0.3,0.2-0.5
			c0.1-0.2,0.4-0.3,0.6-0.5c0.3-0.2,0.7-0.3,1.3-0.3c0-0.4,0.1-0.7,0.1-1.1c0-0.4,0-0.8,0-1.2s0-0.7,0-1.1v-0.8c0-1.1,0-2,0-2.8
			c0-0.7,0-1.4,0-1.9c0-0.5,0-0.9,0-1.2s0-0.5,0-0.6c0-0.3-0.1-0.6-0.1-0.7c0-0.2-0.2-0.3-0.3-0.4s-0.4-0.1-0.7-0.1
			c-0.3,0-0.8,0-1.4,0l0.3-1.1c0.6-0.1,1.3-0.2,1.8-0.3c0.6-0.1,1.1-0.2,1.7-0.3c0.5-0.1,0.9-0.2,1.3-0.3c0.4-0.1,0.7-0.2,0.9-0.3
			L279.5,257.5z M278.9,250.8v0.3c0,0.5,0.1,0.8,0.2,1.2c0.1,0.4,0.3,0.7,0.6,1.1c-0.2,0.4-0.6,0.7-1,0.9c-0.4,0.2-0.9,0.3-1.3,0.3
			c-0.3,0-0.5,0-0.8-0.1c-0.3-0.1-0.5-0.2-0.7-0.4c-0.2-0.2-0.4-0.4-0.5-0.6c-0.1-0.3-0.2-0.6-0.2-0.9c0-0.2,0-0.4,0.1-0.6
			c0-0.3,0.1-0.5,0.2-0.7L278.9,250.8L278.9,250.8z"/>
		<path class="st0" d="M287.1,264.9c0,1.1,0.2,2,0.5,2.7c0.3,0.7,0.6,1.4,1.1,1.8c0.5,0.5,1,0.8,1.7,1c0.6,0.2,1.4,0.3,2.2,0.3
			c0.3,0,0.6,0,0.9-0.1c0.3,0,0.6-0.1,0.9-0.2c0.3-0.1,0.6-0.2,1-0.4c0.4-0.2,0.7-0.3,1.2-0.6l0.6,0.9c-2.3,1.8-4.6,2.8-6.9,2.8
			c-0.8,0-1.6-0.1-2.4-0.4c-0.8-0.3-1.5-0.6-2.1-1.2c-0.6-0.6-1.1-1.3-1.5-2.2s-0.6-2-0.6-3.4c0-1.5,0.2-2.8,0.7-3.9
			c0.5-1.1,1.1-2,1.9-2.8c0.8-0.7,1.7-1.3,2.7-1.7c1-0.4,2-0.6,3-0.6c0.9,0,1.7,0.1,2.3,0.4c0.6,0.3,1.1,0.6,1.5,1
			c0.4,0.5,0.6,0.9,0.8,1.5c0.2,0.6,0.2,1.2,0.2,1.8c0,0.4,0,0.8-0.1,1.2c-0.1,0.4-0.1,0.8-0.2,1.2L287.1,264.9z M293.2,263.4
			c0-0.2,0.1-0.4,0.1-0.5c0-0.2,0-0.3,0-0.5c0-0.5-0.1-0.9-0.2-1.3c-0.1-0.4-0.3-0.8-0.5-1.1c-0.2-0.3-0.5-0.6-0.9-0.7
			c-0.4-0.2-0.8-0.3-1.3-0.3c-0.4,0-0.8,0.1-1.3,0.2c-0.4,0.2-0.7,0.4-1.1,0.8c-0.3,0.4-0.6,0.8-0.8,1.4c-0.2,0.6-0.3,1.3-0.3,2.2
			L293.2,263.4z"/>
		<path class="st0" d="M305,257.4c-0.1,1-0.1,2-0.2,3.1l0.2,0c0.5-0.6,0.9-1,1.3-1.5c0.4-0.4,0.8-0.7,1.1-1c0.4-0.3,0.7-0.5,1.1-0.6
			c0.4-0.1,0.7-0.2,1.1-0.2s0.7,0.1,1,0.2c0.3,0.1,0.5,0.3,0.7,0.5c0.2,0.2,0.3,0.4,0.4,0.7c0.1,0.3,0.1,0.5,0.1,0.8
			s-0.1,0.6-0.2,0.8c-0.1,0.3-0.3,0.5-0.5,0.7c-0.2,0.2-0.5,0.4-0.8,0.5c-0.3,0.1-0.7,0.2-1.1,0.2c-0.1-0.5-0.3-0.8-0.6-1
			c-0.3-0.2-0.7-0.3-1.1-0.3c-0.6,0-1.1,0.2-1.6,0.5c-0.5,0.4-0.9,0.8-1.2,1.4c0,0.6,0,1.1,0,1.7v2.2c0,0.6,0,1.1,0,1.6s0,0.9,0,1.2
			s0,0.7,0,0.9c0,0.3,0,0.5,0,0.7c0,0.3,0,0.5,0.1,0.6c0,0.1,0.2,0.3,0.4,0.4s0.5,0.2,0.9,0.2s1,0.1,1.8,0.2l-0.5,1.2
			c-0.1,0-0.3,0-0.6,0c-0.3,0-0.6,0-1.1-0.1c-0.4,0-0.9,0-1.3,0c-0.5,0-0.9,0-1.4,0c-0.6,0-1.1,0-1.6,0c-0.5,0-0.9,0-1.3,0.1
			c-0.4,0-0.6,0-0.9,0.1c-0.3,0-0.4,0-0.4,0.1c0-0.1,0-0.2,0-0.3c0-0.2,0.1-0.3,0.2-0.5c0.1-0.2,0.4-0.3,0.6-0.5
			c0.3-0.2,0.7-0.3,1.3-0.3c0-0.4,0.1-0.9,0.1-1.4c0-0.5,0-0.9,0-1.4s0-0.9,0-1.3v-1.1c0-1.4,0-2.6,0-3.6c0-0.9-0.1-1.6-0.1-1.9
			c0-0.3-0.1-0.6-0.1-0.7c-0.1-0.2-0.2-0.3-0.3-0.4s-0.4-0.1-0.7-0.1s-0.8,0-1.3,0l0.3-1.1c0.6-0.1,1.2-0.2,1.8-0.3
			c0.6-0.1,1.1-0.2,1.6-0.3c0.5-0.1,0.9-0.2,1.3-0.3c0.4-0.1,0.6-0.2,0.9-0.3L305,257.4z"/>
	</g>
</g>
</svg>
