<?xml version="1.0" encoding="utf-8"?>
<!-- Generator: Adobe Illustrator 24.2.3, SVG Export Plug-In . SVG Version: 6.00 Build 0)  -->
<svg version="1.1" id="Layer_1" xmlns="http://www.w3.org/2000/svg" xmlns:xlink="http://www.w3.org/1999/xlink" x="0px" y="0px"
	 viewBox="0 0 458.9 423.9" style="enable-background:new 0 0 458.9 423.9;" xml:space="preserve">
<style type="text/css">
	.st0{fill:#FFFFFF;stroke:#FFFFFF;stroke-width:4;stroke-linejoin:round;stroke-miterlimit:10;}
	.st1{fill:#FFFFFF;}
</style>
<g>
	<g>
		<g>
			<polygon class="st0" points="64.7,154.1 64.7,184 97.7,184 97.7,184.8 64.7,184.8 64.7,236.2 120,236.2 120,238 61.3,238 
				61.3,184.8 5.5,184.8 5.5,238 2.2,238 2.2,152.4 5.5,152.4 5.5,184 61.3,184 61.3,152.4 120,152.4 120,154.1 			"/>
			<polygon class="st0" points="207.5,152.4 207.5,238 204.1,238 204.1,222.3 135.7,154.7 135.7,238 132.2,238 132.2,152.4 
				135.7,152.4 135.7,152.6 204.1,220.1 204.1,152.4 			"/>
			<polygon class="st0" points="456.7,152.4 456.7,238 453.3,238 453.3,222.3 384.8,154.7 384.8,238 381.5,238 381.5,152.4 
				384.8,152.4 384.8,152.6 453.3,220.1 453.3,152.4 			"/>
			<path class="st0" d="M294.4,225.2c-7.9,8-18.9,13.1-31.1,13.1c-24.1,0-43.7-19.5-43.7-43.7s19.5-43.7,43.7-43.7
				c11,0,21.1,4.1,28.7,10.8l-2.7,2c-7.1-6.9-16.5-11.2-26.9-11.2c-21.9,0-39.7,18.7-39.7,41.9s17.7,41.9,39.6,41.9
				c10,0,19.1-3.9,26.2-10.4v-42.7h3.3v39.3L294.4,225.2z"/>
			<g>
				<rect x="365.8" y="152.4" class="st0" width="3.4" height="85.5"/>
			</g>
			<polygon class="st0" points="354.7,237.9 351.1,237.9 330.8,196.9 330.5,196.3 310,238.3 308.3,237.5 329.2,194.8 308.1,152.4 
				310.9,151 331.7,192.9 332,193.4 352.5,151.6 354.2,152.4 333.3,195.1 			"/>
		</g>
	</g>
	<g>
		<path class="st1" d="M153.5,257.1c-0.1,0.7-0.1,1.3-0.1,2s-0.1,1.4-0.1,2.2c0,0.8,0,1.6,0,2.5c0,0.9,0,1.9,0,2.9v0.9
			c0,0.3,0,0.6,0,1c0,0.4,0,0.6,0,0.9c0,0.3,0,0.5,0,0.6c0,0.2,0,0.4,0.1,0.6c0,0.1,0.2,0.3,0.3,0.3c0.2,0.1,0.4,0.2,0.8,0.2
			c0.4,0.1,0.8,0.1,1.5,0.2l-0.5,1.2c-0.1,0-0.2,0-0.5,0c-0.2,0-0.5,0-0.9-0.1c-0.4,0-0.7,0-1.2,0c-0.5,0-0.8,0-1.3,0
			c-0.6,0-1.1,0-1.5,0c-0.5,0-0.9,0-1.3,0.1c-0.4,0-0.6,0-0.9,0.1c-0.2,0-0.4,0-0.4,0.1c0-0.1,0-0.2,0-0.3c0-0.1,0.1-0.3,0.2-0.5
			c0.1-0.2,0.4-0.3,0.6-0.5c0.3-0.2,0.7-0.3,1.3-0.3c0-0.4,0.1-0.7,0.1-1.1s0-0.8,0-1.2s0-0.7,0-1.1v-0.8c0-1.1,0-2,0-2.8
			c0-0.7,0-1.4,0-1.9s0-0.9,0-1.2c0-0.3,0-0.5,0-0.6c0-0.3-0.1-0.6-0.1-0.7s-0.2-0.3-0.3-0.4c-0.1-0.1-0.4-0.1-0.7-0.1s-0.8,0-1.4,0
			l0.3-1.1c0.6-0.1,1.3-0.2,1.8-0.3c0.6-0.1,1.1-0.2,1.7-0.3c0.5-0.1,0.9-0.2,1.3-0.3c0.4-0.1,0.7-0.2,0.9-0.3L153.5,257.1z
			 M152.9,250.4v0.3c0,0.5,0.1,0.8,0.2,1.2c0.1,0.4,0.3,0.7,0.6,1.1c-0.2,0.4-0.6,0.7-1,0.9c-0.4,0.2-0.9,0.3-1.3,0.3
			c-0.3,0-0.5,0-0.8-0.1s-0.5-0.2-0.7-0.4c-0.2-0.2-0.4-0.4-0.5-0.6c-0.1-0.3-0.2-0.6-0.2-0.9c0-0.2,0-0.4,0.1-0.6
			c0-0.3,0.1-0.5,0.2-0.7L152.9,250.4L152.9,250.4z"/>
		<path class="st1" d="M163.2,257c0,0.4-0.1,0.8-0.1,1.2c0,0.5,0,1,0,1.7h0.1c0.4-0.4,0.9-0.8,1.3-1.2c0.5-0.4,0.9-0.7,1.4-1
			c0.5-0.3,1-0.5,1.5-0.7c0.5-0.2,1.1-0.3,1.7-0.3c0.6,0,1,0.1,1.4,0.2c0.4,0.2,0.8,0.4,1.1,0.6c0.3,0.2,0.6,0.6,0.8,1
			s0.4,0.8,0.5,1.3h0.1c0.4-0.4,0.9-0.8,1.3-1.2c0.5-0.4,0.9-0.7,1.4-1c0.5-0.3,1-0.5,1.6-0.7c0.6-0.2,1.1-0.2,1.7-0.2
			c0.8,0,1.5,0.2,2.1,0.5c0.6,0.3,1,0.7,1.3,1.3c0.3,0.6,0.6,1.2,0.7,2c0.1,0.8,0.2,1.6,0.2,2.5c0,0.5,0,1.1-0.1,1.7
			c0,0.6-0.1,1.3-0.1,1.9s-0.1,1.2-0.1,1.7c0,0.6-0.1,0.9-0.1,1.2c0,0.3,0,0.5,0.1,0.7c0.1,0.2,0.2,0.3,0.4,0.4
			c0.2,0.1,0.5,0.2,0.8,0.3c0.4,0.1,0.9,0.1,1.5,0.2l-0.5,1.2c-0.1,0-0.2,0-0.5,0s-0.6,0-0.9-0.1c-0.4,0-0.8,0-1.2,0
			c-0.5,0-0.9,0-1.4,0c-0.4,0-0.7,0-1.1,0c-0.3,0-0.6,0-0.9,0c0.1-0.8,0.2-1.6,0.2-2.3c0.1-0.7,0.1-1.4,0.2-2c0-0.6,0.1-1.3,0.1-1.8
			c0-0.6,0-1.2,0-1.9c0-0.6,0-1.2-0.1-1.8c0-0.6-0.2-1.1-0.3-1.6c-0.2-0.5-0.5-0.8-0.8-1.2c-0.4-0.3-0.9-0.5-1.6-0.5
			c-0.4,0-0.7,0-1.1,0.1c-0.4,0.1-0.7,0.2-1,0.4s-0.6,0.4-0.9,0.6c-0.3,0.2-0.6,0.5-0.8,0.7c0,0.3,0.1,0.6,0.1,0.9
			c0,0.3,0,0.6,0,0.9c0,0.6,0,1.2,0,1.8c0,0.7-0.1,1.3-0.1,1.9s-0.1,1.2-0.1,1.7c0,0.5,0,0.9,0,1.2c0,0.3,0,0.5,0.1,0.7
			c0.1,0.2,0.2,0.3,0.4,0.4c0.2,0.1,0.5,0.2,0.8,0.3c0.4,0.1,0.8,0.1,1.5,0.2l-0.5,1.2c-0.1,0-0.2,0-0.5,0c-0.2,0-0.5,0-0.9-0.1
			c-0.4,0-0.7,0-1.2,0s-0.9,0-1.4,0c-0.4,0-0.7,0-1.1,0c-0.3,0-0.6,0-0.9,0c0.1-0.8,0.1-1.6,0.2-2.3c0.1-0.7,0.1-1.4,0.1-2
			s0.1-1.3,0.1-1.9s0-1.3,0-1.9s0-1.2-0.1-1.7c0-0.6-0.1-1.1-0.3-1.6c-0.2-0.5-0.5-0.9-0.8-1.2c-0.4-0.3-0.9-0.5-1.6-0.5
			c-0.4,0-0.7,0-1.1,0.1s-0.7,0.2-1,0.4c-0.3,0.2-0.6,0.4-0.9,0.6c-0.3,0.2-0.6,0.5-0.8,0.7c0,0.3,0,0.7,0,1c0,0.4,0,0.7,0,1v3.6
			c0,0.6,0,1,0,1.4s0,0.7,0,1c0,0.3,0,0.6,0,0.8c0,0.2,0,0.4,0.1,0.6c0,0.1,0.2,0.3,0.3,0.3c0.2,0.1,0.4,0.2,0.8,0.2
			c0.4,0.1,0.8,0.1,1.5,0.2l-0.5,1.2c-0.1,0-0.2,0-0.5,0s-0.6,0-0.9-0.1c-0.4,0-0.7,0-1.2,0c-0.4,0-0.9,0-1.3,0c-0.6,0-1.1,0-1.6,0
			s-0.9,0-1.3,0.1c-0.4,0-0.6,0-0.9,0.1c-0.2,0-0.4,0-0.4,0c0-0.1,0-0.2,0-0.3c0-0.1,0.1-0.3,0.2-0.5c0.1-0.2,0.4-0.3,0.6-0.5
			c0.3-0.2,0.7-0.3,1.3-0.3c0-0.4,0.1-0.7,0.1-1.2c0-0.5,0-0.9,0-1.3c0-0.4,0-0.8,0-1.1v-0.7c0-1,0-1.8,0-2.6c0-0.7,0-1.3,0-1.8
			c0-0.5,0-0.9,0-1.2c0-0.3,0-0.6,0-0.7c0-0.3-0.1-0.6-0.1-0.7s-0.2-0.3-0.3-0.4c-0.2-0.1-0.4-0.1-0.7-0.1s-0.8,0-1.4,0l0.3-1.1
			c0.6-0.1,1.2-0.2,1.8-0.3c0.6-0.1,1.1-0.2,1.6-0.3c0.5-0.1,0.9-0.2,1.3-0.3s0.6-0.2,0.9-0.3L163.2,257z"/>
		<path class="st1" d="M192.9,257c0,0.4-0.1,0.8-0.1,1.2c0,0.4,0,1,0,1.7h0.1c0.4-0.4,0.9-0.8,1.3-1.2c0.5-0.4,0.9-0.7,1.4-1
			c0.5-0.3,1-0.5,1.5-0.7c0.5-0.2,1.1-0.3,1.7-0.3c0.6,0,1,0.1,1.4,0.2c0.4,0.2,0.8,0.4,1.1,0.6c0.3,0.3,0.6,0.6,0.8,1
			c0.2,0.4,0.4,0.8,0.5,1.3h0.1c0.4-0.4,0.9-0.8,1.3-1.2c0.5-0.4,0.9-0.7,1.4-1c0.5-0.3,1-0.5,1.6-0.7c0.6-0.2,1.1-0.2,1.7-0.2
			c0.8,0,1.5,0.2,2.1,0.5c0.6,0.3,1,0.7,1.3,1.3c0.3,0.6,0.6,1.2,0.7,2c0.1,0.8,0.2,1.6,0.2,2.5c0,0.5,0,1.1-0.1,1.7
			c0,0.6-0.1,1.3-0.1,1.9s-0.1,1.2-0.1,1.7c0,0.6-0.1,0.9-0.1,1.2c0,0.3,0,0.5,0.1,0.7c0.1,0.2,0.2,0.3,0.4,0.4s0.5,0.2,0.8,0.3
			c0.4,0.1,0.9,0.1,1.5,0.2l-0.5,1.2c-0.1,0-0.2,0-0.5,0s-0.6,0-0.9-0.1c-0.4,0-0.8,0-1.2,0c-0.5,0-0.9,0-1.4,0c-0.4,0-0.7,0-1.1,0
			c-0.3,0-0.6,0-0.9,0c0.1-0.8,0.2-1.6,0.2-2.3c0.1-0.7,0.1-1.4,0.2-2c0-0.6,0.1-1.3,0.1-1.8c0-0.6,0-1.2,0-1.9c0-0.6,0-1.2-0.1-1.8
			c0-0.6-0.2-1.1-0.3-1.6c-0.2-0.5-0.5-0.8-0.8-1.2c-0.4-0.3-0.9-0.5-1.6-0.5c-0.4,0-0.7,0-1.1,0.1c-0.4,0.1-0.7,0.2-1,0.4
			s-0.6,0.4-0.9,0.6c-0.3,0.2-0.6,0.5-0.8,0.7c0,0.3,0.1,0.6,0.1,0.9c0,0.3,0,0.6,0,0.9c0,0.6,0,1.2,0,1.8c0,0.7-0.1,1.3-0.1,1.9
			s-0.1,1.2-0.1,1.7c0,0.5,0,0.9,0,1.2c0,0.3,0,0.5,0.1,0.7c0.1,0.2,0.2,0.3,0.4,0.4c0.2,0.1,0.5,0.2,0.8,0.3
			c0.4,0.1,0.8,0.1,1.5,0.2l-0.5,1.2c-0.1,0-0.2,0-0.5,0c-0.2,0-0.5,0-0.9-0.1c-0.4,0-0.7,0-1.2,0c-0.5,0-0.9,0-1.4,0
			c-0.4,0-0.7,0-1.1,0c-0.3,0-0.6,0-0.9,0c0.1-0.8,0.1-1.6,0.2-2.3c0.1-0.7,0.1-1.4,0.1-2s0.1-1.3,0.1-1.9s0-1.3,0-1.9
			s0-1.2-0.1-1.7c0-0.6-0.1-1.1-0.3-1.6c-0.2-0.5-0.5-0.9-0.8-1.2c-0.4-0.3-0.9-0.5-1.6-0.5c-0.4,0-0.7,0-1.1,0.1
			c-0.4,0.1-0.7,0.2-1,0.4s-0.6,0.4-0.9,0.6c-0.3,0.2-0.6,0.5-0.8,0.7c0,0.3,0,0.7,0,1c0,0.4,0,0.7,0,1v3.6c0,0.6,0,1,0,1.4
			s0,0.7,0,1c0,0.3,0,0.6,0,0.8c0,0.2,0,0.4,0.1,0.6c0,0.1,0.1,0.3,0.3,0.3c0.2,0.1,0.4,0.2,0.8,0.2c0.4,0.1,0.8,0.1,1.5,0.2
			l-0.5,1.2c-0.1,0-0.2,0-0.5,0s-0.6,0-0.9-0.1c-0.4,0-0.7,0-1.2,0c-0.5,0-0.9,0-1.3,0c-0.6,0-1.1,0-1.6,0c-0.5,0-0.9,0-1.3,0.1
			c-0.4,0-0.6,0-0.9,0.1c-0.2,0-0.4,0-0.4,0c0-0.1,0-0.2,0-0.3c0-0.1,0.1-0.3,0.2-0.5c0.1-0.2,0.4-0.3,0.6-0.5
			c0.3-0.2,0.7-0.3,1.3-0.3c0-0.4,0.1-0.7,0.1-1.2c0-0.5,0-0.9,0-1.3c0-0.4,0-0.8,0-1.1v-0.7c0-1,0-1.8,0-2.6c0-0.7,0-1.3,0-1.8
			c0-0.5,0-0.9,0-1.2c0-0.3,0-0.6,0-0.7c0-0.3-0.1-0.6-0.1-0.7c0-0.2-0.2-0.3-0.3-0.4c-0.2-0.1-0.4-0.1-0.7-0.1s-0.8,0-1.4,0
			l0.3-1.1c0.6-0.1,1.2-0.2,1.8-0.3c0.6-0.1,1.1-0.2,1.6-0.3c0.5-0.1,0.9-0.2,1.3-0.3c0.4-0.1,0.6-0.2,0.9-0.3L192.9,257z"/>
		<path class="st1" d="M225.4,256.9c1,0,1.9,0.2,2.8,0.5c0.8,0.3,1.6,0.8,2.2,1.5c0.6,0.6,1.1,1.5,1.5,2.4c0.4,1,0.6,2,0.6,3.3
			c0,1-0.1,1.9-0.4,2.7c-0.2,0.8-0.6,1.5-1,2.1c-0.4,0.6-0.9,1.2-1.5,1.6c-0.6,0.5-1.1,0.8-1.7,1.1c-0.6,0.3-1.3,0.5-1.9,0.6
			c-0.6,0.1-1.3,0.2-1.9,0.2c-1,0-1.9-0.2-2.7-0.5c-0.8-0.3-1.6-0.8-2.2-1.5c-0.6-0.6-1.1-1.5-1.5-2.4c-0.4-1-0.6-2.1-0.6-3.3
			c0-1,0.1-2,0.4-2.8c0.3-0.8,0.6-1.5,1-2.2c0.4-0.6,0.9-1.2,1.5-1.6c0.6-0.5,1.1-0.8,1.8-1.1c0.6-0.3,1.3-0.5,1.9-0.6
			C224.2,257,224.8,256.9,225.4,256.9z M229,266.2c0-0.9-0.1-1.8-0.3-2.7c-0.2-0.9-0.5-1.7-0.9-2.4c-0.4-0.7-0.9-1.3-1.6-1.8
			c-0.6-0.5-1.4-0.7-2.3-0.7c-0.7,0-1.3,0.1-1.7,0.4c-0.4,0.3-0.8,0.6-1.1,1.1s-0.5,1-0.6,1.6s-0.2,1.2-0.2,1.7
			c0,0.9,0.1,1.8,0.3,2.7c0.2,0.9,0.5,1.7,1,2.4c0.4,0.7,1,1.3,1.6,1.8c0.6,0.5,1.4,0.7,2.3,0.7c0.7,0,1.3-0.1,1.7-0.4
			c0.5-0.3,0.8-0.6,1-1.1s0.4-1,0.5-1.6C229,267.4,229,266.8,229,266.2z"/>
		<path class="st1" d="M239.8,259.6c0.4-0.4,0.7-0.7,1.2-1c0.4-0.3,0.9-0.6,1.3-0.9c0.5-0.3,1-0.5,1.5-0.6c0.6-0.2,1.1-0.2,1.7-0.2
			c0.9,0,1.7,0.2,2.5,0.6c0.7,0.4,1.3,0.8,1.8,1.5c0.5,0.6,0.9,1.4,1.2,2.2c0.3,0.8,0.4,1.7,0.4,2.7c0,0.8-0.1,1.6-0.3,2.3
			c-0.2,0.8-0.5,1.5-0.8,2.2c-0.4,0.7-0.8,1.3-1.3,1.9c-0.5,0.6-1.1,1.1-1.8,1.5c-0.7,0.4-1.4,0.7-2.2,1c-0.8,0.2-1.7,0.4-2.6,0.4
			c-0.2,0-0.5,0-0.7,0c-0.3,0-0.6-0.1-1-0.1c-0.4-0.1-0.8-0.1-1.3-0.3c-0.5-0.1-0.9-0.3-1.4-0.5c-0.2,0.1-0.5,0.2-0.8,0.3
			c-0.3,0.1-0.6,0.3-0.9,0.5l-0.2-0.1c0.1-0.8,0.1-1.7,0.2-2.6c0.1-0.9,0.1-1.9,0.1-2.9c0-1,0-2.1,0.1-3.1c0-1.1,0-2.1,0-3.2
			c0-1.2,0-2.4,0-3.6s0-2.2,0-3.2s0-1.8,0-2.5s0-1.2,0-1.5s0-0.6-0.1-0.7c0-0.2-0.2-0.3-0.3-0.4c-0.2-0.1-0.5-0.1-0.8-0.1
			c-0.4,0-0.9,0-1.5,0l0.3-1.1c0.6,0,1.2-0.1,1.8-0.2c0.6-0.1,1.2-0.2,1.7-0.3c0.5-0.1,1-0.2,1.4-0.3c0.4-0.1,0.7-0.2,0.9-0.3
			l0.3,0.2c0,0.6-0.1,1.2-0.1,1.8c0,0.7,0,1.4-0.1,2.1c0,0.7,0,1.5,0,2.3s0,1.6,0,2.3c0,0.7,0,1.5,0,2.2L239.8,259.6L239.8,259.6z
			 M239.8,262.5c0,1.7,0,3.2,0,4.5s0,2.4,0.1,3.4c0.3,0.2,0.6,0.4,0.9,0.5c0.3,0.1,0.6,0.2,0.9,0.3s0.6,0.1,0.8,0.1
			c0.3,0,0.5,0,0.6,0c0.9,0,1.7-0.2,2.3-0.5c0.6-0.4,1.1-0.8,1.5-1.4s0.6-1.2,0.8-1.9c0.2-0.7,0.3-1.5,0.3-2.2s-0.1-1.5-0.3-2.2
			c-0.2-0.7-0.4-1.3-0.8-1.9c-0.4-0.6-0.8-1-1.4-1.3c-0.6-0.3-1.2-0.5-2-0.5c-0.8,0-1.5,0.2-2.1,0.5c-0.6,0.3-1.2,0.7-1.7,1.2
			L239.8,262.5L239.8,262.5z"/>
		<path class="st1" d="M259.5,257.1c-0.1,0.7-0.1,1.3-0.1,2s-0.1,1.4-0.1,2.2c0,0.8,0,1.6,0,2.5c0,0.9,0,1.9,0,2.9v0.9
			c0,0.3,0,0.6,0,1c0,0.4,0,0.6,0,0.9c0,0.3,0,0.5,0,0.6c0,0.2,0,0.4,0.1,0.6c0,0.1,0.2,0.3,0.3,0.3c0.2,0.1,0.4,0.2,0.8,0.2
			c0.4,0.1,0.8,0.1,1.5,0.2l-0.5,1.2c-0.1,0-0.2,0-0.5,0c-0.2,0-0.5,0-0.9-0.1c-0.4,0-0.7,0-1.2,0c-0.4,0-0.8,0-1.3,0
			c-0.6,0-1.1,0-1.5,0c-0.5,0-0.9,0-1.3,0.1c-0.4,0-0.6,0-0.9,0.1c-0.2,0-0.4,0-0.4,0.1c0-0.1,0-0.2,0-0.3c0-0.2,0.1-0.3,0.2-0.5
			c0.1-0.2,0.4-0.3,0.6-0.5c0.3-0.2,0.7-0.3,1.3-0.3c0-0.4,0.1-0.7,0.1-1.1s0-0.8,0-1.2s0-0.7,0-1.1v-0.8c0-1.1,0-2,0-2.8
			c0-0.7,0-1.4,0-1.9s0-0.9,0-1.2c0-0.3,0-0.5,0-0.6c0-0.3-0.1-0.6-0.1-0.7c0-0.2-0.2-0.3-0.3-0.4c-0.1-0.1-0.4-0.1-0.7-0.1
			s-0.8,0-1.4,0l0.3-1.1c0.6-0.1,1.3-0.2,1.8-0.3c0.5-0.1,1.1-0.2,1.7-0.3c0.5-0.1,0.9-0.2,1.3-0.3c0.4-0.1,0.7-0.2,0.9-0.3
			L259.5,257.1z M258.9,250.4v0.3c0,0.5,0.1,0.8,0.2,1.2c0.1,0.4,0.3,0.7,0.6,1.1c-0.2,0.4-0.6,0.7-1,0.9c-0.4,0.2-0.9,0.3-1.3,0.3
			c-0.3,0-0.5,0-0.8-0.1c-0.3-0.1-0.5-0.2-0.7-0.4c-0.2-0.2-0.4-0.4-0.5-0.6c-0.1-0.3-0.2-0.6-0.2-0.9c0-0.2,0-0.4,0.1-0.6
			c0-0.3,0.1-0.5,0.2-0.7L258.9,250.4L258.9,250.4z"/>
		<path class="st1" d="M269.1,247.2c0,0.5-0.1,1.1-0.1,1.8s0,1.5-0.1,2.3c0,0.8,0,1.7,0,2.7s0,1.9,0,2.9v10.1c0,0.7,0,1.3,0,1.8
			s0,1,0,1.3c0,0.3,0,0.5,0.1,0.6c0,0.2,0.2,0.3,0.3,0.4c0.2,0.1,0.4,0.2,0.8,0.2c0.4,0.1,0.8,0.1,1.5,0.2l-0.5,1.2
			c-0.1,0-0.2,0-0.5,0c-0.2,0-0.5,0-0.9-0.1c-0.4,0-0.7,0-1.2,0c-0.4,0-0.8,0-1.3,0c-0.6,0-1.1,0-1.6,0s-0.9,0-1.3,0.1
			c-0.4,0-0.7,0-0.9,0.1c-0.3,0-0.4,0-0.4,0.1c0-0.1,0-0.2,0-0.3c0-0.1,0.1-0.3,0.3-0.5s0.4-0.3,0.7-0.5c0.3-0.2,0.7-0.3,1.3-0.3
			c0-0.4,0-0.8,0.1-1.4c0-0.6,0-1.1,0-1.8c0-0.7,0-1.3,0-2c0-0.7,0-1.4,0-2.1s0-1.4,0-2v-1.8c0-1,0-2,0-3s0-1.9,0-2.8
			c0-0.9,0-1.7,0-2.4s0-1.3,0-1.7c0-0.3-0.1-0.6-0.1-0.7c0-0.2-0.2-0.3-0.3-0.4c-0.2-0.1-0.5-0.1-0.8-0.1c-0.3,0-0.9,0-1.5,0
			l0.3-1.1c0.6,0,1.3-0.1,1.9-0.2s1.2-0.2,1.7-0.3c0.5-0.1,1-0.2,1.4-0.3c0.4-0.1,0.7-0.2,0.9-0.3L269.1,247.2z"/>
		<path class="st1" d="M279,257.1c-0.1,0.7-0.1,1.3-0.1,2s-0.1,1.4-0.1,2.2c0,0.8,0,1.6,0,2.5c0,0.9,0,1.9,0,2.9v0.9
			c0,0.3,0,0.6,0,1c0,0.4,0,0.6,0,0.9c0,0.3,0,0.5,0,0.6c0,0.2,0,0.4,0.1,0.6c0,0.1,0.2,0.3,0.3,0.3c0.2,0.1,0.4,0.2,0.8,0.2
			c0.4,0.1,0.8,0.1,1.5,0.2l-0.5,1.2c-0.1,0-0.2,0-0.5,0c-0.2,0-0.5,0-0.9-0.1c-0.4,0-0.7,0-1.2,0c-0.4,0-0.8,0-1.3,0
			c-0.6,0-1.1,0-1.5,0c-0.5,0-0.9,0-1.3,0.1c-0.4,0-0.6,0-0.9,0.1c-0.2,0-0.4,0-0.4,0.1c0-0.1,0-0.2,0-0.3s0.1-0.3,0.2-0.5
			s0.4-0.3,0.6-0.5c0.3-0.2,0.7-0.3,1.3-0.3c0-0.4,0.1-0.7,0.1-1.1s0-0.8,0-1.2s0-0.7,0-1.1v-0.8c0-1.1,0-2,0-2.8c0-0.7,0-1.4,0-1.9
			s0-0.9,0-1.2c0-0.3,0-0.5,0-0.6c0-0.3-0.1-0.6-0.1-0.7c0-0.2-0.2-0.3-0.3-0.4c-0.1-0.1-0.4-0.1-0.7-0.1s-0.8,0-1.4,0l0.3-1.1
			c0.6-0.1,1.3-0.2,1.8-0.3c0.6-0.1,1.1-0.2,1.7-0.3c0.5-0.1,0.9-0.2,1.3-0.3c0.4-0.1,0.7-0.2,0.9-0.3L279,257.1z M278.4,250.4v0.3
			c0,0.5,0.1,0.8,0.2,1.2c0.1,0.4,0.3,0.7,0.6,1.1c-0.2,0.4-0.6,0.7-1,0.9c-0.4,0.2-0.9,0.3-1.3,0.3c-0.3,0-0.5,0-0.8-0.1
			c-0.3-0.1-0.5-0.2-0.7-0.4c-0.2-0.2-0.4-0.4-0.5-0.6c-0.1-0.3-0.2-0.6-0.2-0.9c0-0.2,0-0.4,0.1-0.6c0-0.3,0.1-0.5,0.2-0.7
			L278.4,250.4L278.4,250.4z"/>
		<path class="st1" d="M286.6,264.4c0,1.1,0.2,2,0.5,2.7c0.3,0.7,0.6,1.4,1.1,1.8c0.5,0.5,1,0.8,1.7,1c0.6,0.2,1.4,0.3,2.2,0.3
			c0.3,0,0.6,0,0.9-0.1c0.3,0,0.6-0.1,0.9-0.2c0.3-0.1,0.6-0.2,1-0.4c0.4-0.2,0.7-0.3,1.2-0.6l0.6,0.9c-2.3,1.8-4.6,2.8-6.8,2.8
			c-0.8,0-1.6-0.1-2.4-0.4c-0.8-0.3-1.5-0.6-2.1-1.2s-1.1-1.3-1.5-2.2c-0.4-0.9-0.6-2-0.6-3.4c0-1.5,0.2-2.8,0.7-3.9
			c0.5-1.1,1.1-2,1.9-2.8c0.8-0.7,1.7-1.3,2.7-1.7s2-0.6,3-0.6c0.9,0,1.7,0.1,2.3,0.4c0.6,0.3,1.1,0.6,1.5,1
			c0.4,0.5,0.6,0.9,0.8,1.5c0.2,0.6,0.2,1.2,0.2,1.8c0,0.4,0,0.8-0.1,1.2c-0.1,0.4-0.1,0.8-0.2,1.2L286.6,264.4z M292.6,262.9
			c0-0.2,0.1-0.4,0.1-0.5c0-0.2,0-0.3,0-0.5c0-0.5-0.1-0.9-0.2-1.3c-0.1-0.4-0.3-0.8-0.5-1.1s-0.5-0.6-0.9-0.7
			c-0.4-0.2-0.8-0.3-1.3-0.3c-0.4,0-0.8,0.1-1.3,0.2c-0.4,0.2-0.7,0.4-1.1,0.8c-0.3,0.4-0.6,0.8-0.8,1.4s-0.3,1.3-0.3,2.2
			L292.6,262.9z"/>
		<path class="st1" d="M304.3,257c-0.1,1-0.1,2-0.2,3.1h0.2c0.5-0.6,0.9-1,1.3-1.5c0.4-0.4,0.8-0.7,1.1-1c0.4-0.3,0.7-0.5,1.1-0.6
			c0.4-0.1,0.7-0.2,1.1-0.2c0.4,0,0.7,0.1,1,0.2c0.3,0.1,0.5,0.3,0.7,0.5c0.2,0.2,0.3,0.4,0.4,0.7c0.1,0.3,0.1,0.5,0.1,0.8
			c0,0.3-0.1,0.6-0.2,0.8c-0.1,0.3-0.3,0.5-0.5,0.7c-0.2,0.2-0.5,0.4-0.8,0.5c-0.3,0.1-0.7,0.2-1.1,0.2c-0.1-0.5-0.3-0.8-0.6-1
			s-0.7-0.3-1.1-0.3c-0.6,0-1.1,0.2-1.6,0.5c-0.5,0.4-0.9,0.8-1.2,1.4c0,0.6,0,1.1,0,1.7v2.2c0,0.6,0,1.1,0,1.6c0,0.5,0,0.9,0,1.2
			c0,0.3,0,0.7,0,0.9c0,0.3,0,0.5,0,0.7c0,0.3,0,0.5,0.1,0.6c0,0.1,0.2,0.3,0.4,0.4c0.2,0.1,0.5,0.2,0.9,0.2s1,0.1,1.8,0.2l-0.5,1.2
			c-0.1,0-0.3,0-0.6,0c-0.3,0-0.6,0-1.1-0.1c-0.4,0-0.9,0-1.3,0c-0.5,0-0.9,0-1.4,0c-0.6,0-1.1,0-1.6,0s-0.9,0-1.3,0.1
			c-0.4,0-0.6,0-0.9,0.1c-0.3,0-0.4,0-0.4,0.1c0-0.1,0-0.2,0-0.3c0-0.2,0.1-0.3,0.2-0.5s0.4-0.3,0.6-0.5c0.3-0.2,0.7-0.3,1.3-0.3
			c0-0.4,0.1-0.9,0.1-1.4c0-0.5,0-0.9,0-1.4s0-0.9,0-1.3V266c0-1.4,0-2.6,0-3.6c0-0.9-0.1-1.6-0.1-1.9c0-0.3-0.1-0.6-0.1-0.7
			c-0.1-0.2-0.2-0.3-0.3-0.4s-0.4-0.1-0.7-0.1c-0.3,0-0.8,0-1.3,0l0.3-1.1c0.6-0.1,1.2-0.2,1.8-0.3c0.6-0.1,1.1-0.2,1.6-0.3
			c0.5-0.1,0.9-0.2,1.3-0.3c0.4-0.1,0.6-0.2,0.9-0.3L304.3,257z"/>
	</g>
</g>
</svg>
