<?xml version="1.0" encoding="utf-8"?>
<!-- Generator: Adobe Illustrator 24.2.3, SVG Export Plug-In . SVG Version: 6.00 Build 0)  -->
<svg version="1.1" id="Calque_1" xmlns="http://www.w3.org/2000/svg" xmlns:xlink="http://www.w3.org/1999/xlink" x="0px" y="0px"
	 viewBox="0 0 512 397" style="enable-background:new 0 0 512 397;" xml:space="preserve">
<style type="text/css">
	.st0{fill:#CC5857;}
</style>
<g id="Capa_2">
	<g id="Layer_1">
		<path class="st0" d="M488.5,350H472v-26.2c32.2-12.4,48.2-48.6,35.8-80.8s-48.6-48.2-80.8-35.8c-4.8,1.8-9.3,4.3-13.5,7.2v-42.7
			l0.8,0.6c10,7.4,24.1,5.2,31.5-4.8c7.2-9.7,5.4-23.4-4.1-30.9l-60.5-46.4c-3.3-2.5-8-1.9-10.5,1.4c-2.5,3.3-1.9,8,1.4,10.5
			l60.5,46.5c3.3,2.5,3.9,7.2,1.4,10.5c-1.4,1.9-3.6,2.9-6,2.9c-1.7,0-3.3-0.5-4.6-1.6l-162.9-125c-2.7-2.1-6.4-2.1-9.1,0
			l-162.9,125c-3.3,2.5-8,1.9-10.5-1.4c-2.5-3.3-1.9-8,1.4-10.5l172-132c2.7-2.1,6.4-2.1,9.1,0l86.1,66.1c3.3,2.5,8,1.9,10.5-1.4
			c2.5-3.3,1.9-8-1.4-10.5L269.7,4.6c-8.1-6.2-19.3-6.2-27.4,0l-172,132c-9.9,7.6-11.7,21.7-4.2,31.6c7.6,9.9,21.7,11.7,31.6,4.1
			l0,0l0.8-0.6v42.7c-28.2-19.9-67.2-13.1-87.1,15.1s-13.1,67.2,15.1,87.1c4.2,3,8.7,5.4,13.5,7.2V350H23.5
			C10.5,350,0,360.5,0,373.5S10.5,397,23.5,397h392.4c4.1,0,7.5-3.4,7.5-7.5s-3.4-7.5-7.5-7.5H23.5c-4.7,0-8.5-3.8-8.5-8.5
			s3.8-8.5,8.5-8.5h465c4.7,0,8.5,3.8,8.5,8.5s-3.8,8.5-8.5,8.5h-40.2c-4.1,0-7.5,3.4-7.5,7.5s3.4,7.5,7.5,7.5l0,0h40.2
			c13,0,23.5-10.5,23.5-23.5S501.5,350,488.5,350z M449.5,218c26.2,0,47.5,21.3,47.5,47.5c0,26.2-21.3,47.5-47.5,47.5
			c-13.8,0-27-6-36-16.5v-62C422.5,224,435.7,217.9,449.5,218L449.5,218z M413.5,316.6c4.2,3,8.7,5.4,13.5,7.2V350h-13.5V316.6z
			 M98.5,316.6V350H85v-26.2C89.8,322,94.3,319.6,98.5,316.6z M15,265.5c0-26.2,21.3-47.5,47.5-47.5c13.8,0,27,6,36,16.5v62
			c-17.1,19.9-47.1,22.1-67,5C21,292.5,15,279.3,15,265.5z M55,350v-22.5c2.5,0.3,5,0.5,7.5,0.5c2.5,0,5-0.2,7.5-0.5V350H55z
			 M246.5,350V213.5c0-4.1-3.4-7.5-7.5-7.5h-90c-4.1,0-7.5,3.4-7.5,7.5v88.8c0,4.1,3.4,7.5,7.5,7.5s7.5-3.4,7.5-7.5V221h75v129h-75
			v-15.5c0-4.1-3.4-7.5-7.5-7.5s-7.5,3.4-7.5,7.5V350h-28V160.2L256,50.8l142.5,109.4V350H246.5z M442,350v-22.5
			c2.5,0.3,5,0.4,7.5,0.5c2.5,0,5-0.2,7.5-0.5V350H442z"/>
		<path class="st0" d="M370.5,266.1v-52.6c0-4.1-3.4-7.5-7.5-7.5h-88c-4.1,0-7.5,3.4-7.5,7.5v52.6c-5.7,0.8-10,5.6-10,11.4v22
			c0,6.3,5.2,11.5,11.5,11.5h100c6.3,0,11.5-5.2,11.5-11.5v-22C380.5,271.7,376.2,266.9,370.5,266.1z M355.5,266h-29v-45h29V266z
			 M282.5,221h29v45h-29V221z M365.5,296h-93v-15h93V296z"/>
		<path class="st0" d="M298.5,131c0-23.5-19-42.5-42.5-42.5s-42.5,19-42.5,42.5s19,42.5,42.5,42.5l0,0
			C279.5,173.5,298.5,154.5,298.5,131z M282.6,124h-19.1v-19.4C272.8,107.2,280.1,114.6,282.6,124z M248.5,104.6V124h-19.1
			C231.9,114.6,239.2,107.2,248.5,104.6z M229.7,139h18.8v18.5C239.5,154.9,232.4,148,229.7,139z M263.5,157.5V139h18.8
			C279.6,148,272.5,154.9,263.5,157.5L263.5,157.5z"/>
	</g>
</g>
</svg>
